<svg xmlns="http://www.w3.org/2000/svg" viewBox="0 0 226 45" fill="none"><path d="M65.31 13.646c-1.13 1.074-1.747 2.564-1.852 4.47a86.893 86.893 0 00-.08 3.384c0 .94.026 2.081.08 3.424.105 1.907.723 3.39 1.852 4.45 1.129 1.061 2.623 1.591 4.482 1.591 1.858 0 3.352-.53 4.481-1.59s1.746-2.544 1.853-4.451c.053-.671.08-1.813.08-3.424 0-1.584-.027-2.712-.08-3.383-.107-1.907-.724-3.397-1.853-4.471-1.13-1.074-2.623-1.611-4.481-1.611-1.86 0-3.353.537-4.482 1.611zm13.007-3.625c1.965 2.014 3.027 4.646 3.187 7.895.053 1.235.08 2.31.08 3.222 0 1.208-.027 2.537-.08 3.987-.16 3.223-1.222 5.84-3.188 7.855C76.352 34.994 73.51 36 69.793 36c-3.72 0-6.56-1.006-8.525-3.02-1.966-2.015-3.028-4.632-3.187-7.855-.054-1.45-.08-2.78-.08-3.987 0-.913.026-1.987.08-3.223.159-3.222 1.22-5.846 3.187-7.874C63.232 8.014 66.073 7 69.792 7c3.717 0 6.559 1.007 8.525 3.02zm19.997 10.473c1.594 0 2.822-.316 3.685-.947.863-.63 1.295-1.672 1.295-3.122s-.426-2.477-1.275-3.081c-.85-.604-2.085-.906-3.705-.906H92.14v8.056h6.174zm7.689-10.775c1.779 1.545 2.669 3.78 2.669 6.706 0 2.927-.89 5.176-2.669 6.747-1.78 1.57-4.277 2.356-7.49 2.356H92.14v8.982c0 .296-.107.55-.319.765a1.029 1.029 0 01-.757.323h-3.227a1.03 1.03 0 01-.757-.323 1.047 1.047 0 01-.318-.765V8.49c0-.294.106-.55.319-.765.212-.215.464-.322.756-.322h10.676c3.213 0 5.71.772 7.49 2.316zm12.389 20.844h13.185c.292 0 .544.107.757.322.213.215.319.47.319.765v2.86c0 .296-.106.55-.319.765a1.028 1.028 0 01-.757.323h-17.488c-.292 0-.545-.107-.757-.323a1.051 1.051 0 01-.318-.765V8.49c0-.295.106-.55.318-.765a1.03 1.03 0 01.757-.322h17.17c.291 0 .544.108.757.322.212.215.318.47.318.765v2.86c0 .296-.106.551-.318.765a1.03 1.03 0 01-.757.323h-12.867v6.404h11.99c.292 0 .544.108.757.323.213.214.319.47.319.765v2.86c0 .295-.106.55-.319.764a1.03 1.03 0 01-.757.323h-11.99v6.686zm35.732 4.108L142.97 17.916V34.51c0 .296-.107.55-.319.765a1.026 1.026 0 01-.756.322h-3.228c-.292 0-.544-.106-.756-.322a1.049 1.049 0 01-.319-.765V8.49c0-.295.106-.55.319-.765.212-.215.464-.322.756-.322h2.789c.611 0 1.129.309 1.554.926l11.154 16.756V8.49c0-.296.106-.55.318-.766a1.03 1.03 0 01.758-.322h3.226c.293 0 .544.107.757.322.213.215.319.47.319.766v26.02c0 .296-.106.55-.319.765a1.026 1.026 0 01-.757.322h-2.788c-.611 0-1.129-.308-1.554-.926zm39.557-26.946c.213.215.319.47.319.765v2.86c0 .296-.106.55-.319.765a1.026 1.026 0 01-.757.323h-12.707v7.814h11.911c.292 0 .544.107.757.322.211.215.318.47.318.765v2.86c0 .295-.107.55-.318.765a1.028 1.028 0 01-.757.323h-11.911v9.223c0 .296-.107.55-.319.766a1.03 1.03 0 01-.757.322h-3.227c-.292 0-.545-.108-.756-.322a1.049 1.049 0 01-.319-.766V8.49c0-.295.106-.55.319-.765.211-.214.464-.322.756-.322h17.01c.293 0 .544.108.757.322zm26.849.355c.238-.32.469-.58.694-.78.224-.2.561-.3 1.011-.3h2.695c.291 0 .542.107.753.32.211.214.317.467.317.76v25.84c0 .294-.106.547-.317.76-.211.213-.462.32-.753.32h-3.21c-.292 0-.542-.107-.754-.32a1.042 1.042 0 01-.317-.76V18.28l-5.153 9c-.422.667-.911 1-1.466 1h-2.06c-.556 0-1.045-.333-1.467-1l-5.152-9v15.64c0 .294-.107.547-.317.76-.212.213-.463.32-.754.32h-3.21c-.291 0-.542-.107-.753-.32a1.042 1.042 0 01-.317-.76V8.08c0-.293.106-.546.317-.76.211-.213.462-.32.753-.32h2.695c.449 0 .786.1 1.011.3.224.2.456.46.694.78l7.53 13.2 7.53-13.2zM22.5 0C34.926 0 45 10.074 45 22.5S34.926 45 22.5 45 0 34.926 0 22.5 10.074 0 22.5 0z" fill="#EF0025"/><path d="M22.5 8C30.508 8 37 14.492 37 22.5S30.508 37 22.5 37 8 30.508 8 22.5 14.492 8 22.5 8z" fill="#000"/><path d="M22.5 18a4.5 4.5 0 110 9 4.5 4.5 0 010-9z" fill="#646464"/></svg>